<svg xmlns="http://www.w3.org/2000/svg" version="1.1" xmlns:xlink="http://www.w3.org/1999/xlink" xmlns:svgjs="http://svgjs.dev/svgjs" width="1440" height="560" preserveAspectRatio="none" viewBox="0 0 1440 560"><g mask="url(&quot;#SvgjsMask14432&quot;)" fill="none"><rect width="1440" height="560" x="0" y="0" fill="rgba(255, 226, 254, 1)"></rect><path d="M924.81 237.74a5.6 5.6 0 1 0-11.2-0.12 5.6 5.6 0 1 0 11.2 0.12zM908.81 237.56a5.6 5.6 0 1 0-11.2-0.12 5.6 5.6 0 1 0 11.2 0.12zM892.81 237.39a5.6 5.6 0 1 0-11.2-0.13 5.6 5.6 0 1 0 11.2 0.13zM876.81 237.21a5.6 5.6 0 1 0-11.2-0.13 5.6 5.6 0 1 0 11.2 0.13z" stroke="rgba(255, 255, 255, 1)" stroke-width="2.16"></path><rect width="132.4" height="132.4" clip-path="url(&quot;#SvgjsClipPath14433&quot;)" x="1263.42" y="34.46" fill="url(&quot;#SvgjsPattern14434&quot;)" transform="rotate(356.54, 1329.62, 100.66)"></rect><path d="M803.34 330.03 L787.07 336.14L784.0033175709001 321.88331757090003z" stroke="rgba(255, 255, 255, 1)" stroke-width="2.82" stroke-dasharray="4, 4"></path><path d="M30.029999999999998 335.36 L130.92000000000002 452.44000000000005L20.401423191993707 453.9735768080063z" stroke="rgba(211, 193, 210, 1)" stroke-width="1.66" stroke-dasharray="3, 3"></path><rect width="88.75999999999999" height="88.75999999999999" clip-path="url(&quot;#SvgjsClipPath14435&quot;)" x="1076.74" y="149.49" fill="url(&quot;#SvgjsPattern14436&quot;)" transform="rotate(175.16, 1121.12, 193.87)"></rect><rect width="95.52" height="95.52" clip-path="url(&quot;#SvgjsClipPath14437&quot;)" x="448.62" y="350.73" fill="url(&quot;#SvgjsPattern14438&quot;)" transform="rotate(313.97, 496.38, 398.49)"></rect><path d="M726.28 167.43 L785.9100000000001 231.98L723.9445068415399 231.85549315846012z" fill="rgba(211, 193, 210, 1)"></path><path d="M916.99 232.74 L958.42 365.5L996.8979179063689 239.92708209363104z" fill="rgba(211, 193, 210, 1)"></path><path d="M896.06 486.11a5.6 5.6 0 1 0-7.63-8.2 5.6 5.6 0 1 0 7.63 8.2zM885.17 474.39a5.6 5.6 0 1 0-7.62-8.21 5.6 5.6 0 1 0 7.62 8.21zM874.28 462.67a5.6 5.6 0 1 0-7.62-8.21 5.6 5.6 0 1 0 7.62 8.21zM863.39 450.95a5.6 5.6 0 1 0-7.62-8.21 5.6 5.6 0 1 0 7.62 8.21z" stroke="rgba(255, 255, 255, 1)" stroke-width="2.33"></path><path d="M76.05 157.45L86.53 164.8 81.65 176.64 92.14 184 87.26 195.84 97.74 203.2 92.86 215.04M68.37 159.69L78.85 167.04 73.98 178.89 84.46 186.24 79.58 198.08 90.06 205.44 85.18 217.28" stroke="rgba(255, 255, 255, 1)" stroke-width="1" stroke-dasharray="3, 3"></path><circle r="78.79097664315529" cx="180.43" cy="431" fill="rgba(255, 255, 255, 1)"></circle><rect width="180" height="180" clip-path="url(&quot;#SvgjsClipPath14439&quot;)" x="94.18" y="45.69" fill="url(&quot;#SvgjsPattern14440&quot;)" transform="rotate(4.68, 184.18, 135.69)"></rect></g><defs><mask id="SvgjsMask14432"><rect width="1440" height="560" fill="#ffffff"></rect></mask><pattern x="0" y="0" width="132.4" height="13.24" patternUnits="userSpaceOnUse" id="SvgjsPattern14434"><rect width="132.4" height="6.62" x="0" y="0" fill="rgba(255, 255, 255, 1)"></rect><rect width="132.4" height="6.62" x="0" y="6.62" fill="rgba(0, 0, 0, 0)"></rect></pattern><clipPath id="SvgjsClipPath14433"><circle r="33.1" cx="1329.62" cy="100.66"></circle></clipPath><pattern x="0" y="0" width="6.34" height="6.34" patternUnits="userSpaceOnUse" id="SvgjsPattern14436"><path d="M0 6.34L3.17 0L6.34 6.34" stroke="rgba(211, 193, 210, 1)" fill="none"></path></pattern><clipPath id="SvgjsClipPath14435"><circle r="22.189999999999998" cx="1121.12" cy="193.87"></circle></clipPath><pattern x="0" y="0" width="7.96" height="7.96" patternUnits="userSpaceOnUse" id="SvgjsPattern14438"><path d="M0 7.96L3.98 0L7.96 7.96" stroke="rgba(255, 255, 255, 1)" fill="none"></path></pattern><clipPath id="SvgjsClipPath14437"><circle r="23.88" cx="496.38" cy="398.49"></circle></clipPath><pattern x="0" y="0" width="6" height="6" patternUnits="userSpaceOnUse" id="SvgjsPattern14440"><path d="M3 1L3 5M1 3L5 3" stroke="rgba(255, 255, 255, 1)" fill="none" stroke-width="1.76"></path></pattern><clipPath id="SvgjsClipPath14439"><circle r="45" cx="184.18" cy="135.69"></circle></clipPath></defs></svg>