<svg xmlns="http://www.w3.org/2000/svg" version="1.1" xmlns:xlink="http://www.w3.org/1999/xlink" xmlns:svgjs="http://svgjs.dev/svgjs" width="1440" height="560" preserveAspectRatio="none" viewBox="0 0 1440 560"><g mask="url(&quot;#SvgjsMask14258&quot;)" fill="none"><rect width="1440" height="560" x="0" y="0" fill="rgba(255, 255, 255, 1)"></rect><circle r="54.75477828510532" cx="381.86" cy="425.31" stroke="rgba(147, 145, 150, 1)" stroke-width="1.22" stroke-dasharray="3, 2"></circle><rect width="204.8" height="204.8" clip-path="url(&quot;#SvgjsClipPath14259&quot;)" x="894.94" y="59.69" fill="url(&quot;#SvgjsPattern14260&quot;)" transform="rotate(95.79, 997.34, 162.09)"></rect><rect width="83" height="83" clip-path="url(&quot;#SvgjsClipPath14261&quot;)" x="186.61" y="-19.31" fill="url(&quot;#SvgjsPattern14262&quot;)" transform="rotate(34.52, 228.11, 22.19)"></rect><rect width="60" height="60" clip-path="url(&quot;#SvgjsClipPath14263&quot;)" x="1300.05" y="407.75" fill="url(&quot;#SvgjsPattern14264&quot;)" transform="rotate(356.43, 1330.05, 437.75)"></rect><path d="M199.44 32.62L189.4 40.57 179.44 32.52 169.4 40.46 159.44 32.41 149.4 40.36 139.44 32.31M199.48 24.62L189.44 32.57 179.48 24.52 169.44 32.46 159.48 24.41 149.44 32.36 139.48 24.31M199.52 16.62L189.48 24.57 179.52 16.52 169.48 24.46 159.52 16.41 149.48 24.36 139.52 16.31" stroke="rgba(211, 193, 210, 1)" stroke-width="2.69" stroke-dasharray="3, 2"></path><path d="M96.6 50.39L94.86 63.08 82.11 64.17 80.37 76.86 67.61 77.96 65.88 90.65 53.12 91.74" stroke="rgba(147, 145, 150, 1)" stroke-width="1.85"></path><rect width="192" height="192" clip-path="url(&quot;#SvgjsClipPath14265&quot;)" x="1104.46" y="325.05" fill="url(&quot;#SvgjsPattern14266&quot;)" transform="rotate(52.58, 1200.46, 421.05)"></rect><path d="M1035.71 434.72L1023.21 437.51 1017.74 425.93 1005.24 428.72 999.78 417.14 987.28 419.93 981.81 408.35M1039.22 427.53L1026.73 430.32 1021.26 418.74 1008.76 421.53 1003.29 409.95 990.79 412.74 985.33 401.16" stroke="rgba(255, 226, 254, 1)" stroke-width="2.69" stroke-dasharray="3, 2"></path><rect width="60" height="60" clip-path="url(&quot;#SvgjsClipPath14267&quot;)" x="73.39" y="460.58" fill="url(&quot;#SvgjsPattern14268&quot;)" transform="rotate(208.33, 103.39, 490.58)"></rect><rect width="288" height="288" clip-path="url(&quot;#SvgjsClipPath14269&quot;)" x="438.37" y="336.14" fill="url(&quot;#SvgjsPattern14270&quot;)" transform="rotate(322.06, 582.37, 480.14)"></rect><path d="M1384.75 141.86 L1323.8400000000001 54.29L1284.0867670123191 168.283232987681z" stroke="rgba(211, 193, 210, 1)" stroke-width="1.95" stroke-dasharray="4, 4"></path><path d="M467.22 188.31L477.77 195.57 473.01 207.45 483.57 214.71 478.81 226.6 489.36 233.85 484.6 245.74" stroke="rgba(255, 226, 254, 1)" stroke-width="1" stroke-dasharray="3, 2"></path></g><defs><mask id="SvgjsMask14258"><rect width="1440" height="560" fill="#ffffff"></rect></mask><pattern x="0" y="0" width="10.24" height="10.24" patternUnits="userSpaceOnUse" id="SvgjsPattern14260"><path d="M0 10.24L5.12 0L10.24 10.24" stroke="rgba(147, 145, 150, 1)" fill="none"></path></pattern><clipPath id="SvgjsClipPath14259"><circle r="51.2" cx="997.34" cy="162.09"></circle></clipPath><pattern x="0" y="0" width="8.3" height="8.3" patternUnits="userSpaceOnUse" id="SvgjsPattern14262"><path d="M0 8.3L4.15 0L8.3 8.3" stroke="rgba(255, 226, 254, 1)" fill="none"></path></pattern><clipPath id="SvgjsClipPath14261"><circle r="20.75" cx="228.11" cy="22.19"></circle></clipPath><pattern x="0" y="0" width="6" height="6" patternUnits="userSpaceOnUse" id="SvgjsPattern14264"><path d="M3 1L3 5M1 3L5 3" stroke="rgba(255, 226, 254, 1)" fill="none" stroke-width="1.59"></path></pattern><clipPath id="SvgjsClipPath14263"><circle r="15" cx="1330.05" cy="437.75"></circle></clipPath><pattern x="0" y="0" width="192" height="6" patternUnits="userSpaceOnUse" id="SvgjsPattern14266"><rect width="192" height="3" x="0" y="0" fill="rgba(255, 226, 254, 1)"></rect><rect width="192" height="3" x="0" y="3" fill="rgba(0, 0, 0, 0)"></rect></pattern><clipPath id="SvgjsClipPath14265"><circle r="48" cx="1200.46" cy="421.05"></circle></clipPath><pattern x="0" y="0" width="6" height="6" patternUnits="userSpaceOnUse" id="SvgjsPattern14268"><path d="M3 1L3 5M1 3L5 3" stroke="rgba(147, 145, 150, 1)" fill="none" stroke-width="1.43"></path></pattern><clipPath id="SvgjsClipPath14267"><circle r="15" cx="103.39" cy="490.58"></circle></clipPath><pattern x="0" y="0" width="6" height="6" patternUnits="userSpaceOnUse" id="SvgjsPattern14270"><path d="M3 1L3 5M1 3L5 3" stroke="rgba(255, 226, 254, 1)" fill="none" stroke-width="1"></path></pattern><clipPath id="SvgjsClipPath14269"><circle r="72" cx="582.37" cy="480.14"></circle></clipPath></defs></svg>