<svg xmlns="http://www.w3.org/2000/svg" version="1.1" xmlns:xlink="http://www.w3.org/1999/xlink" xmlns:svgjs="http://svgjs.dev/svgjs" width="1440" height="560" preserveAspectRatio="none" viewBox="0 0 1440 560"><g mask="url(&quot;#SvgjsMask1148&quot;)" fill="none"><rect width="1440" height="560" x="0" y="0" fill="rgba(47, 54, 61, 1)"></rect><path d="M1396.4199999999998 569.0799999999999 L1287.33 454.37L1419.7876890263365 433.81231097366344z" fill="rgba(39, 60, 44, 1)"></path><rect width="138.48" height="138.48" clip-path="url(&quot;#SvgjsClipPath1149&quot;)" x="493.61" y="130.86" fill="url(&quot;#SvgjsPattern1150&quot;)" transform="rotate(271.93, 562.85, 200.1)"></rect><path d="M1269.3999999999999 348.47 L1359.29 409.59000000000003L1263.7397666943857 429.6352333056142z" fill="rgba(98, 104, 104, 1)"></path><rect width="144" height="144" clip-path="url(&quot;#SvgjsClipPath1151&quot;)" x="631.68" y="344.72" fill="url(&quot;#SvgjsPattern1152&quot;)" transform="rotate(81.42, 703.68, 416.72)"></rect><path d="M143.71 226.43 L124.77000000000001 140.25L79.44518806954176 238.13481193045826z" fill="rgba(98, 104, 104, 1)"></path><rect width="144" height="144" clip-path="url(&quot;#SvgjsClipPath1153&quot;)" x="428.65" y="173.69" fill="url(&quot;#SvgjsPattern1154&quot;)" transform="rotate(193.96, 500.65, 245.69)"></rect><rect width="60" height="60" clip-path="url(&quot;#SvgjsClipPath1155&quot;)" x="620.08" y="77.31" fill="url(&quot;#SvgjsPattern1156&quot;)" transform="rotate(42.34, 650.08, 107.31)"></rect><path d="M375.48 189.69L375.07 176.89 387.46 173.67 387.04 160.87 399.44 157.65 399.02 144.85 411.42 141.64M381.89 194.48L381.47 181.68 393.87 178.46 393.45 165.66 405.85 162.44 405.43 149.64 417.82 146.43M388.3 199.27L387.88 186.47 400.27 183.25 399.86 170.45 412.25 167.23 411.83 154.43 424.23 151.22" stroke="rgba(98, 104, 104, 1)" stroke-width="2.09"></path><path d="M221.73 296.88a5.6 5.6 0 1 0-6.42-9.17 5.6 5.6 0 1 0 6.42 9.17zM212.56 283.77a5.6 5.6 0 1 0-6.42-9.18 5.6 5.6 0 1 0 6.42 9.18zM203.39 270.66a5.6 5.6 0 1 0-6.42-9.18 5.6 5.6 0 1 0 6.42 9.18zM194.22 257.55a5.6 5.6 0 1 0-6.42-9.18 5.6 5.6 0 1 0 6.42 9.18zM253.17 313.94a5.6 5.6 0 1 0-6.41-9.18 5.6 5.6 0 1 0 6.41 9.18zM244.01 300.83a5.6 5.6 0 1 0-6.42-9.18 5.6 5.6 0 1 0 6.42 9.18zM234.84 287.72a5.6 5.6 0 1 0-6.42-9.18 5.6 5.6 0 1 0 6.42 9.18zM225.67 274.6a5.6 5.6 0 1 0-6.42-9.18 5.6 5.6 0 1 0 6.42 9.18z" stroke="rgba(98, 104, 104, 1)" stroke-width="1.16" stroke-dasharray="3, 3"></path><path d="M1242.64 36.33L1252.91 28.67 1262.63 37.01 1272.9 29.36 1282.62 37.69 1292.88 30.04 1302.6 38.38M1242.37 44.32L1252.63 36.67 1262.35 45.01 1272.62 37.35 1282.34 45.69 1292.61 38.04 1302.33 46.37" stroke="rgba(39, 60, 44, 1)" stroke-width="1.7" stroke-dasharray="3, 3"></path><path d="M1155.03 351.77L1165.16 343.94 1175.02 352.11 1185.16 344.28 1195.02 352.45 1205.16 344.63 1215.02 352.8M1154.89 359.77L1165.03 351.94 1174.89 360.11 1185.02 352.28 1194.88 360.45 1205.02 352.63 1214.88 360.8M1154.75 367.77L1164.89 359.94 1174.75 368.11 1184.89 360.28 1194.75 368.45 1204.88 360.62 1214.74 368.79" stroke="rgba(39, 60, 44, 1)" stroke-width="1.39" stroke-dasharray="2, 2"></path><path d="M411.44 565.86L423.35 561.16 430.55 571.75 442.46 567.05 449.66 577.64 461.57 572.94 468.78 583.53" stroke="rgba(98, 104, 104, 1)" stroke-width="1.35"></path></g><defs><mask id="SvgjsMask1148"><rect width="1440" height="560" fill="#ffffff"></rect></mask><pattern x="0" y="0" width="138.48" height="11.54" patternUnits="userSpaceOnUse" id="SvgjsPattern1150"><rect width="138.48" height="5.77" x="0" y="0" fill="rgba(39, 60, 44, 1)"></rect><rect width="138.48" height="5.77" x="0" y="5.77" fill="rgba(0, 0, 0, 0)"></rect></pattern><clipPath id="SvgjsClipPath1149"><circle r="34.62" cx="562.85" cy="200.1"></circle></clipPath><pattern x="0" y="0" width="6" height="6" patternUnits="userSpaceOnUse" id="SvgjsPattern1152"><path d="M3 1L3 5M1 3L5 3" stroke="rgba(39, 60, 44, 1)" fill="none" stroke-width="1.87"></path></pattern><clipPath id="SvgjsClipPath1151"><circle r="36" cx="703.68" cy="416.72"></circle></clipPath><pattern x="0" y="0" width="144" height="6" patternUnits="userSpaceOnUse" id="SvgjsPattern1154"><rect width="144" height="3" x="0" y="0" fill="rgba(98, 104, 104, 1)"></rect><rect width="144" height="3" x="0" y="3" fill="rgba(0, 0, 0, 0)"></rect></pattern><clipPath id="SvgjsClipPath1153"><circle r="36" cx="500.65" cy="245.69"></circle></clipPath><pattern x="0" y="0" width="6" height="6" patternUnits="userSpaceOnUse" id="SvgjsPattern1156"><path d="M0 6L3 0L6 6" stroke="rgba(98, 104, 104, 1)" fill="none"></path></pattern><clipPath id="SvgjsClipPath1155"><circle r="15" cx="650.08" cy="107.31"></circle></clipPath></defs></svg>