<svg xmlns="http://www.w3.org/2000/svg" version="1.1" xmlns:xlink="http://www.w3.org/1999/xlink" xmlns:svgjs="http://svgjs.dev/svgjs" width="1440" height="560" preserveAspectRatio="none" viewBox="0 0 1440 560"><g mask="url(&quot;#SvgjsMask1630&quot;)" fill="none"><rect width="1440" height="560" x="0" y="0" fill="rgba(37, 36, 34, 1)"></rect><path d="M1299.1100000000001 462.59000000000003 L1380.65 452.81L1289.923728069514 407.74372806951385z" stroke="rgba(39, 60, 44, 1)" stroke-width="2.22" stroke-dasharray="4, 4"></path><rect width="126.96000000000001" height="126.96000000000001" clip-path="url(&quot;#SvgjsClipPath1631&quot;)" x="20.06" y="33.85" fill="url(&quot;#SvgjsPattern1632&quot;)" transform="rotate(36.33, 83.54, 97.33)"></rect><path d="M171.57 363.88L171.33 376.68 158.78 379.26 158.54 392.06 146 394.64 145.76 407.44 133.22 410.02M165.41 358.76L165.17 371.57 152.63 374.14 152.39 386.95 139.85 389.52 139.61 402.33 127.06 404.91M159.26 353.65L159.02 366.45 146.48 369.03 146.24 381.83 133.69 384.41 133.46 397.22 120.91 399.79" stroke="rgba(39, 60, 44, 1)" stroke-width="2.3" stroke-dasharray="2, 2"></path><path d="M1416.29 112.44L1428.11 117.35 1425.92 129.97 1437.74 134.88 1435.55 147.49 1447.38 152.4 1445.18 165.02M1409.27 116.29L1421.1 121.2 1418.91 133.82 1430.73 138.73 1428.54 151.35 1440.37 156.26 1438.17 168.87" stroke="rgba(39, 60, 44, 1)" stroke-width="2.09" stroke-dasharray="2, 2"></path><rect width="240" height="240" clip-path="url(&quot;#SvgjsClipPath1633&quot;)" x="897.26" y="341.06" fill="url(&quot;#SvgjsPattern1634&quot;)" transform="rotate(98.59, 1017.26, 461.06)"></rect><rect width="156" height="156" clip-path="url(&quot;#SvgjsClipPath1635&quot;)" x="1251.83" y="20.76" fill="url(&quot;#SvgjsPattern1636&quot;)" transform="rotate(164.37, 1329.83, 98.76)"></rect><rect width="204" height="204" clip-path="url(&quot;#SvgjsClipPath1637&quot;)" x="381.17" y="430.54" fill="url(&quot;#SvgjsPattern1638&quot;)" transform="rotate(22.23, 483.17, 532.54)"></rect><path d="M957.3199999999999 323.28 L833.81 283.43L986.7037009917991 212.21629900820088z" stroke="rgba(64, 61, 57, 1)" stroke-width="2.29"></path><rect width="156" height="156" clip-path="url(&quot;#SvgjsClipPath1639&quot;)" x="408.56" y="377.24" fill="url(&quot;#SvgjsPattern1640&quot;)" transform="rotate(319.12, 486.56, 455.24)"></rect><rect width="120" height="120" clip-path="url(&quot;#SvgjsClipPath1641&quot;)" x="31.91" y="213.11" fill="url(&quot;#SvgjsPattern1642&quot;)" transform="rotate(133.47, 91.91, 273.11)"></rect><rect width="60" height="60" clip-path="url(&quot;#SvgjsClipPath1643&quot;)" x="1308.13" y="49.25" fill="url(&quot;#SvgjsPattern1644&quot;)" transform="rotate(215.8, 1338.13, 79.25)"></rect><rect width="60" height="60" clip-path="url(&quot;#SvgjsClipPath1645&quot;)" x="1260.21" y="271.42" fill="url(&quot;#SvgjsPattern1646&quot;)" transform="rotate(131.35, 1290.21, 301.42)"></rect></g><defs><mask id="SvgjsMask1630"><rect width="1440" height="560" fill="#ffffff"></rect></mask><pattern x="0" y="0" width="10.58" height="10.58" patternUnits="userSpaceOnUse" id="SvgjsPattern1632"><path d="M0 10.58L5.29 0L10.58 10.58" stroke="rgba(64, 61, 57, 1)" fill="none"></path></pattern><clipPath id="SvgjsClipPath1631"><circle r="31.740000000000002" cx="83.54" cy="97.33"></circle></clipPath><pattern x="0" y="0" width="10" height="10" patternUnits="userSpaceOnUse" id="SvgjsPattern1634"><path d="M0 10L5 0L10 10" stroke="rgba(39, 60, 44, 1)" fill="none"></path></pattern><clipPath id="SvgjsClipPath1633"><circle r="60" cx="1017.26" cy="461.06"></circle></clipPath><pattern x="0" y="0" width="6" height="6" patternUnits="userSpaceOnUse" id="SvgjsPattern1636"><path d="M0 6L3 0L6 6" stroke="rgba(64, 61, 57, 1)" fill="none"></path></pattern><clipPath id="SvgjsClipPath1635"><circle r="39" cx="1329.83" cy="98.76"></circle></clipPath><pattern x="0" y="0" width="204" height="6" patternUnits="userSpaceOnUse" id="SvgjsPattern1638"><rect width="204" height="3" x="0" y="0" fill="rgba(64, 61, 57, 1)"></rect><rect width="204" height="3" x="0" y="3" fill="rgba(0, 0, 0, 0)"></rect></pattern><clipPath id="SvgjsClipPath1637"><circle r="51" cx="483.17" cy="532.54"></circle></clipPath><pattern x="0" y="0" width="6" height="6" patternUnits="userSpaceOnUse" id="SvgjsPattern1640"><path d="M0 6L3 0L6 6" stroke="rgba(39, 60, 44, 1)" fill="none"></path></pattern><clipPath id="SvgjsClipPath1639"><circle r="39" cx="486.56" cy="455.24"></circle></clipPath><pattern x="0" y="0" width="120" height="10" patternUnits="userSpaceOnUse" id="SvgjsPattern1642"><rect width="120" height="5" x="0" y="0" fill="rgba(64, 61, 57, 1)"></rect><rect width="120" height="5" x="0" y="5" fill="rgba(0, 0, 0, 0)"></rect></pattern><clipPath id="SvgjsClipPath1641"><circle r="30" cx="91.91" cy="273.11"></circle></clipPath><pattern x="0" y="0" width="6" height="6" patternUnits="userSpaceOnUse" id="SvgjsPattern1644"><path d="M3 1L3 5M1 3L5 3" stroke="rgba(39, 60, 44, 1)" fill="none" stroke-width="1"></path></pattern><clipPath id="SvgjsClipPath1643"><circle r="15" cx="1338.13" cy="79.25"></circle></clipPath><pattern x="0" y="0" width="6" height="6" patternUnits="userSpaceOnUse" id="SvgjsPattern1646"><path d="M0 6L3 0L6 6" stroke="rgba(39, 60, 44, 1)" fill="none"></path></pattern><clipPath id="SvgjsClipPath1645"><circle r="15" cx="1290.21" cy="301.42"></circle></clipPath></defs></svg>