<svg xmlns="http://www.w3.org/2000/svg" version="1.1" xmlns:xlink="http://www.w3.org/1999/xlink" xmlns:svgjs="http://svgjs.dev/svgjs" width="1440" height="560" preserveAspectRatio="none" viewBox="0 0 1440 560"><g mask="url(&quot;#SvgjsMask1527&quot;)" fill="none"><rect width="1440" height="560" x="0" y="0" fill="rgba(24, 40, 37, 1)"></rect><path d="M988.52 294.82L999.64 288.48 1008.27 297.94 1019.4 291.6 1028.03 301.06 1039.15 294.72 1047.78 304.18" stroke="rgba(46, 64, 82, 1)" stroke-width="1.96" stroke-dasharray="2, 2"></path><path d="M496.19 521.62L489.7 532.66 477.5 528.75 471.01 539.79 458.82 535.88 452.33 546.92 440.13 543.01M493.33 514.14L486.84 525.18 474.65 521.27 468.16 532.31 455.96 528.41 449.47 539.45 437.28 535.54" stroke="rgba(46, 64, 82, 1)" stroke-width="1.94" stroke-dasharray="3, 2"></path><path d="M84.24 397.5a5.6 5.6 0 1 0 9.32 6.22 5.6 5.6 0 1 0-9.32-6.22zM97.55 406.38a5.6 5.6 0 1 0 9.31 6.22 5.6 5.6 0 1 0-9.31-6.22zM110.85 415.27a5.6 5.6 0 1 0 9.32 6.22 5.6 5.6 0 1 0-9.32-6.22zM124.16 424.15a5.6 5.6 0 1 0 9.32 6.22 5.6 5.6 0 1 0-9.32-6.22z" stroke="rgba(46, 64, 82, 1)" stroke-width="1.94" stroke-dasharray="3, 3"></path><rect width="151.2" height="151.2" clip-path="url(&quot;#SvgjsClipPath1528&quot;)" x="1304.43" y="259.31" fill="url(&quot;#SvgjsPattern1529&quot;)" transform="rotate(83.87, 1380.03, 334.91)"></rect><path d="M818.25 351.46a5.6 5.6 0 1 0 1.06-11.15 5.6 5.6 0 1 0-1.06 11.15zM819.76 335.53a5.6 5.6 0 1 0 1.05-11.15 5.6 5.6 0 1 0-1.05 11.15zM821.26 319.61a5.6 5.6 0 1 0 1.05-11.16 5.6 5.6 0 1 0-1.05 11.16zM822.76 303.68a5.6 5.6 0 1 0 1.06-11.15 5.6 5.6 0 1 0-1.06 11.15z" fill="rgba(46, 64, 82, 1)"></path><rect width="138.4" height="138.4" clip-path="url(&quot;#SvgjsClipPath1530&quot;)" x="-62.6" y="208.6" fill="url(&quot;#SvgjsPattern1531&quot;)" transform="rotate(203.02, 6.6, 277.8)"></rect><rect width="334.08" height="334.08" clip-path="url(&quot;#SvgjsClipPath1532&quot;)" x="619.39" y="122.3" fill="url(&quot;#SvgjsPattern1533&quot;)" transform="rotate(163.06, 786.43, 289.34)"></rect><rect width="313.6" height="313.6" clip-path="url(&quot;#SvgjsClipPath1534&quot;)" x="60.9" y="-37.43" fill="url(&quot;#SvgjsPattern1535&quot;)" transform="rotate(351.42, 217.7, 119.37)"></rect><circle r="46.666666666666664" cx="366.35" cy="220.63" stroke="rgba(46, 64, 82, 1)" stroke-width="1" stroke-dasharray="3, 3"></circle><rect width="60" height="60" clip-path="url(&quot;#SvgjsClipPath1536&quot;)" x="1141.93" y="457.51" fill="url(&quot;#SvgjsPattern1537&quot;)" transform="rotate(158.66, 1171.93, 487.51)"></rect><rect width="108.72" height="108.72" clip-path="url(&quot;#SvgjsClipPath1538&quot;)" x="913.83" y="385.7" fill="url(&quot;#SvgjsPattern1539&quot;)" transform="rotate(255.7, 968.19, 440.06)"></rect><path d="M668.76 162.37a5.6 5.6 0 1 0 3.1 10.76 5.6 5.6 0 1 0-3.1-10.76zM673.19 177.74a5.6 5.6 0 1 0 3.1 10.76 5.6 5.6 0 1 0-3.1-10.76zM677.62 193.12a5.6 5.6 0 1 0 3.1 10.76 5.6 5.6 0 1 0-3.1-10.76zM682.05 208.49a5.6 5.6 0 1 0 3.1 10.76 5.6 5.6 0 1 0-3.1-10.76z" stroke="rgba(46, 64, 82, 1)" stroke-width="1.03" stroke-dasharray="3, 2"></path></g><defs><mask id="SvgjsMask1527"><rect width="1440" height="560" fill="#ffffff"></rect></mask><pattern x="0" y="0" width="7.56" height="7.56" patternUnits="userSpaceOnUse" id="SvgjsPattern1529"><path d="M0 7.56L3.78 0L7.56 7.56" stroke="rgba(39, 60, 44, 1)" fill="none"></path></pattern><clipPath id="SvgjsClipPath1528"><circle r="37.8" cx="1380.03" cy="334.91"></circle></clipPath><pattern x="0" y="0" width="13.84" height="13.84" patternUnits="userSpaceOnUse" id="SvgjsPattern1531"><path d="M0 13.84L6.92 0L13.84 13.84" stroke="rgba(46, 64, 82, 1)" fill="none"></path></pattern><clipPath id="SvgjsClipPath1530"><circle r="34.6" cx="6.6" cy="277.8"></circle></clipPath><pattern x="0" y="0" width="13.92" height="13.92" patternUnits="userSpaceOnUse" id="SvgjsPattern1533"><path d="M6.96 1L6.96 12.92M1 6.96L12.92 6.96" stroke="rgba(46, 64, 82, 1)" fill="none" stroke-width="1"></path></pattern><clipPath id="SvgjsClipPath1532"><circle r="83.52" cx="786.43" cy="289.34"></circle></clipPath><pattern x="0" y="0" width="9.8" height="9.8" patternUnits="userSpaceOnUse" id="SvgjsPattern1535"><path d="M4.9 1L4.9 8.8M1 4.9L8.8 4.9" stroke="rgba(46, 64, 82, 1)" fill="none" stroke-width="1"></path></pattern><clipPath id="SvgjsClipPath1534"><circle r="78.4" cx="217.7" cy="119.37"></circle></clipPath><pattern x="0" y="0" width="6" height="6" patternUnits="userSpaceOnUse" id="SvgjsPattern1537"><path d="M0 6L3 0L6 6" stroke="rgba(39, 60, 44, 1)" fill="none"></path></pattern><clipPath id="SvgjsClipPath1536"><circle r="15" cx="1171.93" cy="487.51"></circle></clipPath><pattern x="0" y="0" width="6.04" height="6.04" patternUnits="userSpaceOnUse" id="SvgjsPattern1539"><path d="M3.02 1L3.02 5.04M1 3.02L5.04 3.02" stroke="rgba(46, 64, 82, 1)" fill="none" stroke-width="1.19"></path></pattern><clipPath id="SvgjsClipPath1538"><circle r="27.18" cx="968.19" cy="440.06"></circle></clipPath></defs></svg>