<svg xmlns="http://www.w3.org/2000/svg" version="1.1" xmlns:xlink="http://www.w3.org/1999/xlink" xmlns:svgjs="http://svgjs.dev/svgjs" width="1440" height="560" preserveAspectRatio="none" viewBox="0 0 1440 560"><g mask="url(&quot;#SvgjsMask2629&quot;)" fill="none"><rect width="1440" height="560" x="0" y="0" fill="#0e2a47"></rect><path d="M23.63 -58.1L88.58 -20.6L88.58 54.4L23.63 91.9L-41.32 54.4L-41.32 -20.6zM88.58 54.4L153.54 91.9L153.54 166.9L88.58 204.4L23.63 166.9L23.63 91.9zM23.63 166.9L88.58 204.4L88.58 279.4L23.63 316.9L-41.32 279.4L-41.32 204.4zM88.58 279.4L153.54 316.9L153.54 391.9L88.58 429.4L23.63 391.9L23.63 316.9zM88.58 504.4L153.54 541.9L153.54 616.9L88.58 654.4L23.63 616.9L23.63 541.9zM153.54 166.9L218.49 204.4L218.49 279.4L153.54 316.9L88.58 279.4L88.58 204.4zM218.49 504.4L283.44 541.9L283.44 616.9L218.49 654.4L153.54 616.9L153.54 541.9zM283.44 -58.1L348.4 -20.6L348.4 54.4L283.44 91.9L218.49 54.4L218.49 -20.6zM348.4 54.4L413.35 91.9L413.35 166.9L348.4 204.4L283.44 166.9L283.44 91.9zM413.35 -58.1L478.31 -20.6L478.31 54.4L413.35 91.9L348.4 54.4L348.4 -20.6zM478.31 54.4L543.26 91.9L543.26 166.9L478.31 204.4L413.35 166.9L413.35 91.9zM413.35 166.9L478.31 204.4L478.31 279.4L413.35 316.9L348.4 279.4L348.4 204.4zM478.31 504.4L543.26 541.9L543.26 616.9L478.31 654.4L413.35 616.9L413.35 541.9zM543.26 -58.1L608.21 -20.6L608.21 54.4L543.26 91.9L478.31 54.4L478.31 -20.6zM543.26 391.9L608.21 429.4L608.21 504.4L543.26 541.9L478.31 504.4L478.31 429.4zM673.17 -58.1L738.12 -20.6L738.12 54.4L673.17 91.9L608.21 54.4L608.21 -20.6zM738.12 279.4L803.08 316.9L803.08 391.9L738.12 429.4L673.17 391.9L673.17 316.9zM673.17 391.9L738.12 429.4L738.12 504.4L673.17 541.9L608.21 504.4L608.21 429.4zM738.12 504.4L803.08 541.9L803.08 616.9L738.12 654.4L673.17 616.9L673.17 541.9zM868.03 54.4L932.98 91.9L932.98 166.9L868.03 204.4L803.07 166.9L803.07 91.9zM932.98 -58.1L997.94 -20.6L997.94 54.4L932.98 91.9L868.03 54.4L868.03 -20.6zM932.98 166.9L997.94 204.4L997.94 279.4L932.98 316.9L868.03 279.4L868.03 204.4zM997.94 279.4L1062.89 316.9L1062.89 391.9L997.94 429.4L932.98 391.9L932.98 316.9zM932.98 391.9L997.94 429.4L997.94 504.4L932.98 541.9L868.03 504.4L868.03 429.4zM1062.89 -58.1L1127.84 -20.6L1127.84 54.4L1062.89 91.9L997.94 54.4L997.94 -20.6zM1127.84 279.4L1192.8 316.9L1192.8 391.9L1127.84 429.4L1062.89 391.9L1062.89 316.9zM1062.89 391.9L1127.84 429.4L1127.84 504.4L1062.89 541.9L997.94 504.4L997.94 429.4zM1192.8 166.9L1257.75 204.4L1257.75 279.4L1192.8 316.9L1127.84 279.4L1127.84 204.4zM1257.75 279.4L1322.7 316.9L1322.7 391.9L1257.75 429.4L1192.8 391.9L1192.8 316.9zM1322.71 -58.1L1387.66 -20.6L1387.66 54.4L1322.71 91.9L1257.75 54.4L1257.75 -20.6zM1387.66 54.4L1452.61 91.9L1452.61 166.9L1387.66 204.4L1322.71 166.9L1322.71 91.9zM1322.71 166.9L1387.66 204.4L1387.66 279.4L1322.71 316.9L1257.75 279.4L1257.75 204.4zM1387.66 279.4L1452.61 316.9L1452.61 391.9L1387.66 429.4L1322.71 391.9L1322.71 316.9zM1322.71 391.9L1387.66 429.4L1387.66 504.4L1322.71 541.9L1257.75 504.4L1257.75 429.4zM1387.66 504.4L1452.61 541.9L1452.61 616.9L1387.66 654.4L1322.71 616.9L1322.71 541.9zM1452.61 -58.1L1517.57 -20.6L1517.57 54.4L1452.61 91.9L1387.66 54.4L1387.66 -20.6zM1452.61 166.9L1517.57 204.4L1517.57 279.4L1452.61 316.9L1387.66 279.4L1387.66 204.4zM1517.57 279.4L1582.52 316.9L1582.52 391.9L1517.57 429.4L1452.61 391.9L1452.61 316.9zM1517.57 504.4L1582.52 541.9L1582.52 616.9L1517.57 654.4L1452.61 616.9L1452.61 541.9z" stroke="#03305d" stroke-width="2"></path><path d="M16.13 -58.1 a7.5 7.5 0 1 0 15 0 a7.5 7.5 0 1 0 -15 0zM81.08 -20.6 a7.5 7.5 0 1 0 15 0 a7.5 7.5 0 1 0 -15 0zM81.08 54.4 a7.5 7.5 0 1 0 15 0 a7.5 7.5 0 1 0 -15 0zM16.13 91.9 a7.5 7.5 0 1 0 15 0 a7.5 7.5 0 1 0 -15 0zM-48.82 54.4 a7.5 7.5 0 1 0 15 0 a7.5 7.5 0 1 0 -15 0zM-48.82 -20.6 a7.5 7.5 0 1 0 15 0 a7.5 7.5 0 1 0 -15 0zM146.04 91.9 a7.5 7.5 0 1 0 15 0 a7.5 7.5 0 1 0 -15 0zM146.04 166.9 a7.5 7.5 0 1 0 15 0 a7.5 7.5 0 1 0 -15 0zM81.08 204.4 a7.5 7.5 0 1 0 15 0 a7.5 7.5 0 1 0 -15 0zM16.13 166.9 a7.5 7.5 0 1 0 15 0 a7.5 7.5 0 1 0 -15 0zM81.08 279.4 a7.5 7.5 0 1 0 15 0 a7.5 7.5 0 1 0 -15 0zM16.13 316.9 a7.5 7.5 0 1 0 15 0 a7.5 7.5 0 1 0 -15 0zM-48.82 279.4 a7.5 7.5 0 1 0 15 0 a7.5 7.5 0 1 0 -15 0zM-48.82 204.4 a7.5 7.5 0 1 0 15 0 a7.5 7.5 0 1 0 -15 0zM146.04 316.9 a7.5 7.5 0 1 0 15 0 a7.5 7.5 0 1 0 -15 0zM146.04 391.9 a7.5 7.5 0 1 0 15 0 a7.5 7.5 0 1 0 -15 0zM81.08 429.4 a7.5 7.5 0 1 0 15 0 a7.5 7.5 0 1 0 -15 0zM16.13 391.9 a7.5 7.5 0 1 0 15 0 a7.5 7.5 0 1 0 -15 0zM81.08 504.4 a7.5 7.5 0 1 0 15 0 a7.5 7.5 0 1 0 -15 0zM146.04 541.9 a7.5 7.5 0 1 0 15 0 a7.5 7.5 0 1 0 -15 0zM146.04 616.9 a7.5 7.5 0 1 0 15 0 a7.5 7.5 0 1 0 -15 0zM81.08 654.4 a7.5 7.5 0 1 0 15 0 a7.5 7.5 0 1 0 -15 0zM16.13 616.9 a7.5 7.5 0 1 0 15 0 a7.5 7.5 0 1 0 -15 0zM16.13 541.9 a7.5 7.5 0 1 0 15 0 a7.5 7.5 0 1 0 -15 0zM210.99 204.4 a7.5 7.5 0 1 0 15 0 a7.5 7.5 0 1 0 -15 0zM210.99 279.4 a7.5 7.5 0 1 0 15 0 a7.5 7.5 0 1 0 -15 0zM210.99 504.4 a7.5 7.5 0 1 0 15 0 a7.5 7.5 0 1 0 -15 0zM275.94 541.9 a7.5 7.5 0 1 0 15 0 a7.5 7.5 0 1 0 -15 0zM275.94 616.9 a7.5 7.5 0 1 0 15 0 a7.5 7.5 0 1 0 -15 0zM210.99 654.4 a7.5 7.5 0 1 0 15 0 a7.5 7.5 0 1 0 -15 0zM275.94 -58.1 a7.5 7.5 0 1 0 15 0 a7.5 7.5 0 1 0 -15 0zM340.9 -20.6 a7.5 7.5 0 1 0 15 0 a7.5 7.5 0 1 0 -15 0zM340.9 54.4 a7.5 7.5 0 1 0 15 0 a7.5 7.5 0 1 0 -15 0zM275.94 91.9 a7.5 7.5 0 1 0 15 0 a7.5 7.5 0 1 0 -15 0zM210.99 54.4 a7.5 7.5 0 1 0 15 0 a7.5 7.5 0 1 0 -15 0zM210.99 -20.6 a7.5 7.5 0 1 0 15 0 a7.5 7.5 0 1 0 -15 0zM405.85 91.9 a7.5 7.5 0 1 0 15 0 a7.5 7.5 0 1 0 -15 0zM405.85 166.9 a7.5 7.5 0 1 0 15 0 a7.5 7.5 0 1 0 -15 0zM340.9 204.4 a7.5 7.5 0 1 0 15 0 a7.5 7.5 0 1 0 -15 0zM275.94 166.9 a7.5 7.5 0 1 0 15 0 a7.5 7.5 0 1 0 -15 0zM405.85 -58.1 a7.5 7.5 0 1 0 15 0 a7.5 7.5 0 1 0 -15 0zM470.81 -20.6 a7.5 7.5 0 1 0 15 0 a7.5 7.5 0 1 0 -15 0zM470.81 54.4 a7.5 7.5 0 1 0 15 0 a7.5 7.5 0 1 0 -15 0zM535.76 91.9 a7.5 7.5 0 1 0 15 0 a7.5 7.5 0 1 0 -15 0zM535.76 166.9 a7.5 7.5 0 1 0 15 0 a7.5 7.5 0 1 0 -15 0zM470.81 204.4 a7.5 7.5 0 1 0 15 0 a7.5 7.5 0 1 0 -15 0zM470.81 279.4 a7.5 7.5 0 1 0 15 0 a7.5 7.5 0 1 0 -15 0zM405.85 316.9 a7.5 7.5 0 1 0 15 0 a7.5 7.5 0 1 0 -15 0zM340.9 279.4 a7.5 7.5 0 1 0 15 0 a7.5 7.5 0 1 0 -15 0zM470.81 504.4 a7.5 7.5 0 1 0 15 0 a7.5 7.5 0 1 0 -15 0zM535.76 541.9 a7.5 7.5 0 1 0 15 0 a7.5 7.5 0 1 0 -15 0zM535.76 616.9 a7.5 7.5 0 1 0 15 0 a7.5 7.5 0 1 0 -15 0zM470.81 654.4 a7.5 7.5 0 1 0 15 0 a7.5 7.5 0 1 0 -15 0zM405.85 616.9 a7.5 7.5 0 1 0 15 0 a7.5 7.5 0 1 0 -15 0zM405.85 541.9 a7.5 7.5 0 1 0 15 0 a7.5 7.5 0 1 0 -15 0zM535.76 -58.1 a7.5 7.5 0 1 0 15 0 a7.5 7.5 0 1 0 -15 0zM600.71 -20.6 a7.5 7.5 0 1 0 15 0 a7.5 7.5 0 1 0 -15 0zM600.71 54.4 a7.5 7.5 0 1 0 15 0 a7.5 7.5 0 1 0 -15 0zM535.76 391.9 a7.5 7.5 0 1 0 15 0 a7.5 7.5 0 1 0 -15 0zM600.71 429.4 a7.5 7.5 0 1 0 15 0 a7.5 7.5 0 1 0 -15 0zM600.71 504.4 a7.5 7.5 0 1 0 15 0 a7.5 7.5 0 1 0 -15 0zM470.81 429.4 a7.5 7.5 0 1 0 15 0 a7.5 7.5 0 1 0 -15 0zM665.67 -58.1 a7.5 7.5 0 1 0 15 0 a7.5 7.5 0 1 0 -15 0zM730.62 -20.6 a7.5 7.5 0 1 0 15 0 a7.5 7.5 0 1 0 -15 0zM730.62 54.4 a7.5 7.5 0 1 0 15 0 a7.5 7.5 0 1 0 -15 0zM665.67 91.9 a7.5 7.5 0 1 0 15 0 a7.5 7.5 0 1 0 -15 0zM730.62 279.4 a7.5 7.5 0 1 0 15 0 a7.5 7.5 0 1 0 -15 0zM795.58 316.9 a7.5 7.5 0 1 0 15 0 a7.5 7.5 0 1 0 -15 0zM795.58 391.9 a7.5 7.5 0 1 0 15 0 a7.5 7.5 0 1 0 -15 0zM730.62 429.4 a7.5 7.5 0 1 0 15 0 a7.5 7.5 0 1 0 -15 0zM665.67 391.9 a7.5 7.5 0 1 0 15 0 a7.5 7.5 0 1 0 -15 0zM665.67 316.9 a7.5 7.5 0 1 0 15 0 a7.5 7.5 0 1 0 -15 0zM730.62 504.4 a7.5 7.5 0 1 0 15 0 a7.5 7.5 0 1 0 -15 0zM665.67 541.9 a7.5 7.5 0 1 0 15 0 a7.5 7.5 0 1 0 -15 0zM795.58 541.9 a7.5 7.5 0 1 0 15 0 a7.5 7.5 0 1 0 -15 0zM795.58 616.9 a7.5 7.5 0 1 0 15 0 a7.5 7.5 0 1 0 -15 0zM730.62 654.4 a7.5 7.5 0 1 0 15 0 a7.5 7.5 0 1 0 -15 0zM665.67 616.9 a7.5 7.5 0 1 0 15 0 a7.5 7.5 0 1 0 -15 0zM860.53 54.4 a7.5 7.5 0 1 0 15 0 a7.5 7.5 0 1 0 -15 0zM925.48 91.9 a7.5 7.5 0 1 0 15 0 a7.5 7.5 0 1 0 -15 0zM925.48 166.9 a7.5 7.5 0 1 0 15 0 a7.5 7.5 0 1 0 -15 0zM860.53 204.4 a7.5 7.5 0 1 0 15 0 a7.5 7.5 0 1 0 -15 0zM795.57 166.9 a7.5 7.5 0 1 0 15 0 a7.5 7.5 0 1 0 -15 0zM795.57 91.9 a7.5 7.5 0 1 0 15 0 a7.5 7.5 0 1 0 -15 0zM925.48 -58.1 a7.5 7.5 0 1 0 15 0 a7.5 7.5 0 1 0 -15 0zM990.44 -20.6 a7.5 7.5 0 1 0 15 0 a7.5 7.5 0 1 0 -15 0zM990.44 54.4 a7.5 7.5 0 1 0 15 0 a7.5 7.5 0 1 0 -15 0zM860.53 -20.6 a7.5 7.5 0 1 0 15 0 a7.5 7.5 0 1 0 -15 0zM990.44 204.4 a7.5 7.5 0 1 0 15 0 a7.5 7.5 0 1 0 -15 0zM990.44 279.4 a7.5 7.5 0 1 0 15 0 a7.5 7.5 0 1 0 -15 0zM925.48 316.9 a7.5 7.5 0 1 0 15 0 a7.5 7.5 0 1 0 -15 0zM860.53 279.4 a7.5 7.5 0 1 0 15 0 a7.5 7.5 0 1 0 -15 0zM1055.39 316.9 a7.5 7.5 0 1 0 15 0 a7.5 7.5 0 1 0 -15 0zM1055.39 391.9 a7.5 7.5 0 1 0 15 0 a7.5 7.5 0 1 0 -15 0zM990.44 429.4 a7.5 7.5 0 1 0 15 0 a7.5 7.5 0 1 0 -15 0zM925.48 391.9 a7.5 7.5 0 1 0 15 0 a7.5 7.5 0 1 0 -15 0zM990.44 504.4 a7.5 7.5 0 1 0 15 0 a7.5 7.5 0 1 0 -15 0zM925.48 541.9 a7.5 7.5 0 1 0 15 0 a7.5 7.5 0 1 0 -15 0zM860.53 504.4 a7.5 7.5 0 1 0 15 0 a7.5 7.5 0 1 0 -15 0zM860.53 429.4 a7.5 7.5 0 1 0 15 0 a7.5 7.5 0 1 0 -15 0zM1055.39 -58.1 a7.5 7.5 0 1 0 15 0 a7.5 7.5 0 1 0 -15 0zM1120.34 -20.6 a7.5 7.5 0 1 0 15 0 a7.5 7.5 0 1 0 -15 0zM1120.34 54.4 a7.5 7.5 0 1 0 15 0 a7.5 7.5 0 1 0 -15 0zM1055.39 91.9 a7.5 7.5 0 1 0 15 0 a7.5 7.5 0 1 0 -15 0zM1120.34 279.4 a7.5 7.5 0 1 0 15 0 a7.5 7.5 0 1 0 -15 0zM1185.3 316.9 a7.5 7.5 0 1 0 15 0 a7.5 7.5 0 1 0 -15 0zM1185.3 391.9 a7.5 7.5 0 1 0 15 0 a7.5 7.5 0 1 0 -15 0zM1120.34 429.4 a7.5 7.5 0 1 0 15 0 a7.5 7.5 0 1 0 -15 0zM1120.34 504.4 a7.5 7.5 0 1 0 15 0 a7.5 7.5 0 1 0 -15 0zM1055.39 541.9 a7.5 7.5 0 1 0 15 0 a7.5 7.5 0 1 0 -15 0zM1185.3 166.9 a7.5 7.5 0 1 0 15 0 a7.5 7.5 0 1 0 -15 0zM1250.25 204.4 a7.5 7.5 0 1 0 15 0 a7.5 7.5 0 1 0 -15 0zM1250.25 279.4 a7.5 7.5 0 1 0 15 0 a7.5 7.5 0 1 0 -15 0zM1120.34 204.4 a7.5 7.5 0 1 0 15 0 a7.5 7.5 0 1 0 -15 0zM1315.2 316.9 a7.5 7.5 0 1 0 15 0 a7.5 7.5 0 1 0 -15 0zM1315.2 391.9 a7.5 7.5 0 1 0 15 0 a7.5 7.5 0 1 0 -15 0zM1250.25 429.4 a7.5 7.5 0 1 0 15 0 a7.5 7.5 0 1 0 -15 0zM1315.21 -58.1 a7.5 7.5 0 1 0 15 0 a7.5 7.5 0 1 0 -15 0zM1380.16 -20.6 a7.5 7.5 0 1 0 15 0 a7.5 7.5 0 1 0 -15 0zM1380.16 54.4 a7.5 7.5 0 1 0 15 0 a7.5 7.5 0 1 0 -15 0zM1315.21 91.9 a7.5 7.5 0 1 0 15 0 a7.5 7.5 0 1 0 -15 0zM1250.25 54.4 a7.5 7.5 0 1 0 15 0 a7.5 7.5 0 1 0 -15 0zM1250.25 -20.6 a7.5 7.5 0 1 0 15 0 a7.5 7.5 0 1 0 -15 0zM1445.11 91.9 a7.5 7.5 0 1 0 15 0 a7.5 7.5 0 1 0 -15 0zM1445.11 166.9 a7.5 7.5 0 1 0 15 0 a7.5 7.5 0 1 0 -15 0zM1380.16 204.4 a7.5 7.5 0 1 0 15 0 a7.5 7.5 0 1 0 -15 0zM1315.21 166.9 a7.5 7.5 0 1 0 15 0 a7.5 7.5 0 1 0 -15 0zM1380.16 279.4 a7.5 7.5 0 1 0 15 0 a7.5 7.5 0 1 0 -15 0zM1315.21 316.9 a7.5 7.5 0 1 0 15 0 a7.5 7.5 0 1 0 -15 0zM1445.11 316.9 a7.5 7.5 0 1 0 15 0 a7.5 7.5 0 1 0 -15 0zM1445.11 391.9 a7.5 7.5 0 1 0 15 0 a7.5 7.5 0 1 0 -15 0zM1380.16 429.4 a7.5 7.5 0 1 0 15 0 a7.5 7.5 0 1 0 -15 0zM1315.21 391.9 a7.5 7.5 0 1 0 15 0 a7.5 7.5 0 1 0 -15 0zM1380.16 504.4 a7.5 7.5 0 1 0 15 0 a7.5 7.5 0 1 0 -15 0zM1315.21 541.9 a7.5 7.5 0 1 0 15 0 a7.5 7.5 0 1 0 -15 0zM1250.25 504.4 a7.5 7.5 0 1 0 15 0 a7.5 7.5 0 1 0 -15 0zM1445.11 541.9 a7.5 7.5 0 1 0 15 0 a7.5 7.5 0 1 0 -15 0zM1445.11 616.9 a7.5 7.5 0 1 0 15 0 a7.5 7.5 0 1 0 -15 0zM1380.16 654.4 a7.5 7.5 0 1 0 15 0 a7.5 7.5 0 1 0 -15 0zM1315.21 616.9 a7.5 7.5 0 1 0 15 0 a7.5 7.5 0 1 0 -15 0zM1445.11 -58.1 a7.5 7.5 0 1 0 15 0 a7.5 7.5 0 1 0 -15 0zM1510.07 -20.6 a7.5 7.5 0 1 0 15 0 a7.5 7.5 0 1 0 -15 0zM1510.07 54.4 a7.5 7.5 0 1 0 15 0 a7.5 7.5 0 1 0 -15 0zM1510.07 204.4 a7.5 7.5 0 1 0 15 0 a7.5 7.5 0 1 0 -15 0zM1510.07 279.4 a7.5 7.5 0 1 0 15 0 a7.5 7.5 0 1 0 -15 0zM1575.02 316.9 a7.5 7.5 0 1 0 15 0 a7.5 7.5 0 1 0 -15 0zM1575.02 391.9 a7.5 7.5 0 1 0 15 0 a7.5 7.5 0 1 0 -15 0zM1510.07 429.4 a7.5 7.5 0 1 0 15 0 a7.5 7.5 0 1 0 -15 0zM1510.07 504.4 a7.5 7.5 0 1 0 15 0 a7.5 7.5 0 1 0 -15 0zM1575.02 541.9 a7.5 7.5 0 1 0 15 0 a7.5 7.5 0 1 0 -15 0zM1575.02 616.9 a7.5 7.5 0 1 0 15 0 a7.5 7.5 0 1 0 -15 0zM1510.07 654.4 a7.5 7.5 0 1 0 15 0 a7.5 7.5 0 1 0 -15 0z" fill="#03305d"></path><path d="M27.87 -20.63L59.05 -2.63L59.05 33.37L27.87 51.37L-3.31 33.37L-3.31 -2.63zM59.05 141.37L90.23 159.37L90.23 195.37L59.05 213.37L27.87 195.37L27.87 159.37zM90.23 87.37L121.4 105.37L121.4 141.37L90.23 159.37L59.05 141.37L59.05 105.37zM90.23 303.37L121.4 321.37L121.4 357.37L90.23 375.37L59.05 357.37L59.05 321.37zM183.76 465.37L214.94 483.37L214.94 519.37L183.76 537.37L152.58 519.37L152.58 483.37zM214.94 -20.63L246.11 -2.63L246.11 33.37L214.94 51.37L183.76 33.37L183.76 -2.63zM308.47 141.37L339.65 159.37L339.65 195.37L308.47 213.37L277.29 195.37L277.29 159.37zM339.65 87.37L370.83 105.37L370.83 141.37L339.65 159.37L308.47 141.37L308.47 105.37zM370.83 141.37L402 159.37L402 195.37L370.83 213.37L339.65 195.37L339.65 159.37zM339.65 195.37L370.83 213.37L370.83 249.37L339.65 267.37L308.47 249.37L308.47 213.37zM370.83 465.37L402 483.37L402 519.37L370.83 537.37L339.65 519.37L339.65 483.37zM339.65 519.37L370.83 537.37L370.83 573.37L339.65 591.37L308.47 573.37L308.47 537.37zM433.18 249.37L464.36 267.37L464.36 303.37L433.18 321.37L402 303.37L402 267.37zM402 303.37L433.18 321.37L433.18 357.37L402 375.37L370.83 357.37L370.83 321.37zM433.18 357.37L464.36 375.37L464.36 411.37L433.18 429.37L402 411.37L402 375.37zM402 411.37L433.18 429.37L433.18 465.37L402 483.37L370.83 465.37L370.83 429.37zM464.36 195.37L495.54 213.37L495.54 249.37L464.36 267.37L433.18 249.37L433.18 213.37zM495.54 249.37L526.71 267.37L526.71 303.37L495.54 321.37L464.36 303.37L464.36 267.37zM557.89 141.37L589.07 159.37L589.07 195.37L557.89 213.37L526.71 195.37L526.71 159.37zM589.07 -20.63L620.25 -2.63L620.25 33.37L589.07 51.37L557.89 33.37L557.89 -2.63zM589.07 303.37L620.25 321.37L620.25 357.37L589.07 375.37L557.89 357.37L557.89 321.37zM620.25 465.37L651.43 483.37L651.43 519.37L620.25 537.37L589.07 519.37L589.07 483.37zM682.6 141.37L713.78 159.37L713.78 195.37L682.6 213.37L651.43 195.37L651.43 159.37zM651.43 195.37L682.6 213.37L682.6 249.37L651.43 267.37L620.25 249.37L620.25 213.37zM713.78 87.37L744.96 105.37L744.96 141.37L713.78 159.37L682.6 141.37L682.6 105.37zM713.78 411.37L744.96 429.37L744.96 465.37L713.78 483.37L682.6 465.37L682.6 429.37zM744.96 465.37L776.14 483.37L776.14 519.37L744.96 537.37L713.78 519.37L713.78 483.37zM713.78 519.37L744.96 537.37L744.96 573.37L713.78 591.37L682.6 573.37L682.6 537.37zM807.32 249.37L838.49 267.37L838.49 303.37L807.32 321.37L776.14 303.37L776.14 267.37zM807.32 465.37L838.49 483.37L838.49 519.37L807.32 537.37L776.14 519.37L776.14 483.37zM838.49 411.37L869.67 429.37L869.67 465.37L838.49 483.37L807.31 465.37L807.31 429.37zM900.85 -20.63L932.03 -2.63L932.03 33.37L900.85 51.37L869.67 33.37L869.67 -2.63zM994.38 33.37L1025.56 51.37L1025.56 87.37L994.38 105.37L963.2 87.37L963.2 51.37zM963.2 411.37L994.38 429.37L994.38 465.37L963.2 483.37L932.03 465.37L932.03 429.37zM1056.74 465.37L1087.92 483.37L1087.92 519.37L1056.74 537.37L1025.56 519.37L1025.56 483.37zM1087.92 -20.63L1119.09 -2.63L1119.09 33.37L1087.92 51.37L1056.74 33.37L1056.74 -2.63zM1087.92 411.37L1119.09 429.37L1119.09 465.37L1087.92 483.37L1056.74 465.37L1056.74 429.37zM1181.45 33.37L1212.63 51.37L1212.63 87.37L1181.45 105.37L1150.27 87.37L1150.27 51.37zM1181.45 141.37L1212.63 159.37L1212.63 195.37L1181.45 213.37L1150.27 195.37L1150.27 159.37zM1150.27 195.37L1181.45 213.37L1181.45 249.37L1150.27 267.37L1119.09 249.37L1119.09 213.37zM1150.27 303.37L1181.45 321.37L1181.45 357.37L1150.27 375.37L1119.09 357.37L1119.09 321.37zM1150.27 411.37L1181.45 429.37L1181.45 465.37L1150.27 483.37L1119.09 465.37L1119.09 429.37zM1243.8 33.37L1274.98 51.37L1274.98 87.37L1243.8 105.37L1212.63 87.37L1212.63 51.37zM1243.8 141.37L1274.98 159.37L1274.98 195.37L1243.8 213.37L1212.63 195.37L1212.63 159.37zM1212.63 195.37L1243.8 213.37L1243.8 249.37L1212.63 267.37L1181.45 249.37L1181.45 213.37zM1212.63 303.37L1243.8 321.37L1243.8 357.37L1212.63 375.37L1181.45 357.37L1181.45 321.37zM1306.16 33.37L1337.34 51.37L1337.34 87.37L1306.16 105.37L1274.98 87.37L1274.98 51.37zM1274.98 87.37L1306.16 105.37L1306.16 141.37L1274.98 159.37L1243.8 141.37L1243.8 105.37zM1274.98 411.37L1306.16 429.37L1306.16 465.37L1274.98 483.37L1243.8 465.37L1243.8 429.37zM1306.16 465.37L1337.34 483.37L1337.34 519.37L1306.16 537.37L1274.98 519.37L1274.98 483.37zM1274.98 519.37L1306.16 537.37L1306.16 573.37L1274.98 591.37L1243.8 573.37L1243.8 537.37zM1337.34 87.37L1368.52 105.37L1368.52 141.37L1337.34 159.37L1306.16 141.37L1306.16 105.37zM1337.34 303.37L1368.52 321.37L1368.52 357.37L1337.34 375.37L1306.16 357.37L1306.16 321.37zM1368.52 357.37L1399.69 375.37L1399.69 411.37L1368.52 429.37L1337.34 411.37L1337.34 375.37zM1337.34 519.37L1368.52 537.37L1368.52 573.37L1337.34 591.37L1306.16 573.37L1306.16 537.37zM1399.69 87.37L1430.87 105.37L1430.87 141.37L1399.69 159.37L1368.52 141.37L1368.52 105.37zM1430.87 141.37L1462.05 159.37L1462.05 195.37L1430.87 213.37L1399.69 195.37L1399.69 159.37zM1399.69 519.37L1430.87 537.37L1430.87 573.37L1399.69 591.37L1368.52 573.37L1368.52 537.37zM1493.23 33.37L1524.4 51.37L1524.4 87.37L1493.23 105.37L1462.05 87.37L1462.05 51.37zM1462.05 303.37L1493.23 321.37L1493.23 357.37L1462.05 375.37L1430.87 357.37L1430.87 321.37z" stroke="url(&quot;#SvgjsLinearGradient2630&quot;)" stroke-width="2"></path></g><defs><mask id="SvgjsMask2629"><rect width="1440" height="560" fill="#ffffff"></rect></mask><linearGradient x1="220.03199999999998" y1="-220.02399999999997" x2="1219.9679999999998" y2="780.024" gradientUnits="userSpaceOnUse" id="SvgjsLinearGradient2630"><stop stop-color="rgba(14, 42, 71, 1)" offset="0"></stop><stop stop-color="rgba(0, 158, 153, 1)" offset="1"></stop></linearGradient></defs></svg>