<svg xmlns="http://www.w3.org/2000/svg" version="1.1" xmlns:xlink="http://www.w3.org/1999/xlink" xmlns:svgjs="http://svgjs.dev/svgjs" width="1440" height="560" preserveAspectRatio="none" viewBox="0 0 1440 560"><g mask="url(&quot;#SvgjsMask14538&quot;)" fill="none"><rect width="1440" height="560" x="0" y="0" fill="rgba(255, 255, 255, 1)"></rect><rect width="132.4" height="132.4" clip-path="url(&quot;#SvgjsClipPath14539&quot;)" x="187.86" y="19.17" fill="url(&quot;#SvgjsPattern14540&quot;)" transform="rotate(100.84, 254.06, 85.37)"></rect><rect width="339" height="339" clip-path="url(&quot;#SvgjsClipPath14541&quot;)" x="274.48" y="-151.84" fill="url(&quot;#SvgjsPattern14542&quot;)" transform="rotate(343.24, 443.98, 17.66)"></rect><circle r="69.46173880661469" cx="1293.34" cy="451.6" fill="rgba(211, 193, 210, 1)"></circle><path d="M1413.17 261.39a5.6 5.6 0 1 0 1.5-11.1 5.6 5.6 0 1 0-1.5 11.1zM1415.31 245.54a5.6 5.6 0 1 0 1.5-11.1 5.6 5.6 0 1 0-1.5 11.1zM1417.46 229.68a5.6 5.6 0 1 0 1.49-11.1 5.6 5.6 0 1 0-1.49 11.1zM1419.6 213.83a5.6 5.6 0 1 0 1.5-11.1 5.6 5.6 0 1 0-1.5 11.1z" fill="rgba(211, 193, 210, 1)"></path><rect width="60" height="60" clip-path="url(&quot;#SvgjsClipPath14543&quot;)" x="981.03" y="446.65" fill="url(&quot;#SvgjsPattern14544&quot;)" transform="rotate(76.84, 1011.03, 476.65)"></rect><circle r="46.666666666666664" cx="22.52" cy="288.02" fill="rgba(255, 226, 254, 1)"></circle><path d="M926.51 63.78a5.6 5.6 0 1 0-9.5-5.93 5.6 5.6 0 1 0 9.5 5.93zM912.94 55.31a5.6 5.6 0 1 0-9.5-5.94 5.6 5.6 0 1 0 9.5 5.94zM899.37 46.83a5.6 5.6 0 1 0-9.5-5.93 5.6 5.6 0 1 0 9.5 5.93zM885.8 38.35a5.6 5.6 0 1 0-9.5-5.93 5.6 5.6 0 1 0 9.5 5.93zM962.13 67.16a5.6 5.6 0 1 0-9.5-5.93 5.6 5.6 0 1 0 9.5 5.93zM948.56 58.69a5.6 5.6 0 1 0-9.5-5.93 5.6 5.6 0 1 0 9.5 5.93zM934.99 50.21a5.6 5.6 0 1 0-9.5-5.93 5.6 5.6 0 1 0 9.5 5.93zM921.42 41.74a5.6 5.6 0 1 0-9.5-5.94 5.6 5.6 0 1 0 9.5 5.94zM997.74 70.55a5.6 5.6 0 1 0-9.5-5.94 5.6 5.6 0 1 0 9.5 5.94zM984.17 62.07a5.6 5.6 0 1 0-9.5-5.93 5.6 5.6 0 1 0 9.5 5.93zM970.6 53.59a5.6 5.6 0 1 0-9.5-5.93 5.6 5.6 0 1 0 9.5 5.93zM957.03 45.12a5.6 5.6 0 1 0-9.5-5.94 5.6 5.6 0 1 0 9.5 5.94z" fill="rgba(211, 193, 210, 1)"></path><path d="M613.51 170.87a5.6 5.6 0 1 0-2.03 11.02 5.6 5.6 0 1 0 2.03-11.02zM610.61 186.61a5.6 5.6 0 1 0-2.03 11.01 5.6 5.6 0 1 0 2.03-11.01zM607.71 202.34a5.6 5.6 0 1 0-2.03 11.02 5.6 5.6 0 1 0 2.03-11.02zM604.82 218.08a5.6 5.6 0 1 0-2.03 11.01 5.6 5.6 0 1 0 2.03-11.01zM603.56 136.5a5.6 5.6 0 1 0-2.02 11.02 5.6 5.6 0 1 0 2.02-11.02zM600.67 152.24a5.6 5.6 0 1 0-2.03 11.02 5.6 5.6 0 1 0 2.03-11.02zM597.77 167.98a5.6 5.6 0 1 0-2.03 11.01 5.6 5.6 0 1 0 2.03-11.01zM594.87 183.71a5.6 5.6 0 1 0-2.02 11.02 5.6 5.6 0 1 0 2.02-11.02z" fill="rgba(255, 226, 254, 1)"></path><rect width="60" height="60" clip-path="url(&quot;#SvgjsClipPath14545&quot;)" x="396.43" y="108.32" fill="url(&quot;#SvgjsPattern14546&quot;)" transform="rotate(358.13, 426.43, 138.32)"></rect><rect width="366.16" height="366.16" clip-path="url(&quot;#SvgjsClipPath14547&quot;)" x="443.81" y="38.56" fill="url(&quot;#SvgjsPattern14548&quot;)" transform="rotate(127.09, 626.89, 221.64)"></rect><path d="M138.13 552.26 L133.36 587.7700000000001L152.47575701091552 586.7457570109157z" stroke="rgba(255, 226, 254, 1)" stroke-width="1" stroke-dasharray="3, 2"></path><circle r="85.46270045322733" cx="673.82" cy="390.96" stroke="rgba(211, 193, 210, 1)" stroke-width="1.95" stroke-dasharray="2, 2"></circle></g><defs><mask id="SvgjsMask14538"><rect width="1440" height="560" fill="#ffffff"></rect></mask><pattern x="0" y="0" width="13.24" height="13.24" patternUnits="userSpaceOnUse" id="SvgjsPattern14540"><path d="M0 13.24L6.62 0L13.24 13.24" stroke="rgba(211, 193, 210, 1)" fill="none"></path></pattern><clipPath id="SvgjsClipPath14539"><circle r="33.1" cx="254.06" cy="85.37"></circle></clipPath><pattern x="0" y="0" width="6.78" height="6.78" patternUnits="userSpaceOnUse" id="SvgjsPattern14542"><path d="M0 6.78L3.39 0L6.78 6.78" stroke="rgba(255, 226, 254, 1)" fill="none"></path></pattern><clipPath id="SvgjsClipPath14541"><circle r="84.75" cx="443.98" cy="17.66"></circle></clipPath><pattern x="0" y="0" width="6" height="6" patternUnits="userSpaceOnUse" id="SvgjsPattern14544"><path d="M3 1L3 5M1 3L5 3" stroke="rgba(255, 226, 254, 1)" fill="none" stroke-width="1.12"></path></pattern><clipPath id="SvgjsClipPath14543"><circle r="15" cx="1011.03" cy="476.65"></circle></clipPath><pattern x="0" y="0" width="60" height="6" patternUnits="userSpaceOnUse" id="SvgjsPattern14546"><rect width="60" height="3" x="0" y="0" fill="rgba(211, 193, 210, 1)"></rect><rect width="60" height="3" x="0" y="3" fill="rgba(0, 0, 0, 0)"></rect></pattern><clipPath id="SvgjsClipPath14545"><circle r="15" cx="426.43" cy="138.32"></circle></clipPath><pattern x="0" y="0" width="7.96" height="7.96" patternUnits="userSpaceOnUse" id="SvgjsPattern14548"><path d="M0 7.96L3.98 0L7.96 7.96" stroke="rgba(211, 193, 210, 1)" fill="none"></path></pattern><clipPath id="SvgjsClipPath14547"><circle r="91.54" cx="626.89" cy="221.64"></circle></clipPath></defs></svg>